<?xml version="1.0" standalone="no"?><!DOCTYPE svg PUBLIC "-//W3C//DTD SVG 1.1//EN" "http://www.w3.org/Graphics/SVG/1.1/DTD/svg11.dtd"><svg t="1744593076961" class="icon" viewBox="0 0 1024 1024" version="1.1" xmlns="http://www.w3.org/2000/svg" p-id="2761" xmlns:xlink="http://www.w3.org/1999/xlink" width="200" height="200"><path d="M896.74 114.82h-608.2c-44.46 0-80.62 36.16-80.62 80.62v230.78c0 5.52 4.48 10 10 10h177.04v7.64c-11.62 10.54-18.44 25.68-18.44 41.48 0 30.84 25.1 55.94 55.96 55.94s55.96-25.1 55.96-55.94c0-16.06-6.68-30.9-18.46-41.5v-7.62h112.66v122.68c0 5.52 4.48 10 10 10h27.32l3-4.02c6.86-9.18 17.36-14.44 28.8-14.44 19.82 0 35.94 16.12 35.94 35.96 0 19.82-16.12 35.96-35.94 35.96-11.44 0-21.94-5.26-28.8-14.44l-3-4.02h-27.32c-4.84 0-8.86 3.44-9.8 8-0.14 0.64-0.2 1.32-0.2 2.02v110.5c0 5.52 4.48 10 10 10h304.1c44.46 0 80.62-36.16 80.62-80.62V195.44c0-44.46-36.16-80.62-80.62-80.62z m-314.1 301.4h-122.66c-5.52 0-10 4.48-10 10v22.3c0 0.22 0.06 0.44 0.06 0.66 0.04 0.36 0.06 0.72 0.12 1.06 0.06 0.32 0.14 0.62 0.22 0.94 0.08 0.3 0.18 0.62 0.3 0.94 0.12 0.3 0.26 0.58 0.4 0.86 0.14 0.3 0.28 0.58 0.46 0.86s0.38 0.52 0.56 0.78c0.2 0.26 0.4 0.52 0.62 0.76 0.24 0.26 0.52 0.48 0.78 0.7 0.18 0.16 0.32 0.32 0.5 0.46 9.18 6.86 14.44 17.36 14.44 28.8 0 19.82-16.14 35.94-35.96 35.94-19.84 0-35.96-16.12-35.96-35.94 0-11.44 5.26-21.94 14.44-28.8 0.18-0.14 0.32-0.32 0.5-0.46 0.26-0.22 0.52-0.46 0.76-0.7s0.44-0.5 0.64-0.78c0.18-0.24 0.38-0.48 0.54-0.74 0.18-0.3 0.34-0.6 0.48-0.9 0.14-0.28 0.28-0.54 0.4-0.84 0.12-0.32 0.2-0.64 0.3-0.98 0.08-0.28 0.16-0.58 0.22-0.88 0.06-0.38 0.08-0.74 0.1-1.12 0.02-0.2 0.06-0.4 0.06-0.62v-22.3c0-5.52-4.48-10-10-10h-177.04V195.44c0-33.42 27.2-60.62 60.62-60.62h294.1v93.72h-7.64c-10.54-11.62-25.68-18.44-41.48-18.44-30.84 0-55.94 25.1-55.94 55.96s25.1 55.96 55.94 55.96c15.8 0 30.94-6.84 41.48-18.46h7.64v112.66zM957.36 653.8c0 33.42-27.2 60.62-60.62 60.62H602.64v-90.52h7.6c0.16 0.2 0.34 0.38 0.52 0.56 0.3 0.34 0.62 0.68 0.94 1l1.26 1.26c0.32 0.3 0.64 0.62 0.98 0.92 0.44 0.42 0.88 0.8 1.34 1.2 0.32 0.28 0.66 0.58 1 0.84 0.48 0.4 0.96 0.78 1.46 1.16 0.32 0.26 0.64 0.5 0.96 0.74 0.56 0.42 1.14 0.82 1.72 1.22 0.28 0.18 0.54 0.36 0.8 0.54 0.86 0.56 1.72 1.1 2.6 1.6 0.16 0.1 0.32 0.18 0.48 0.26 0.74 0.42 1.46 0.82 2.22 1.2 0.32 0.16 0.66 0.3 0.98 0.46 0.6 0.28 1.18 0.58 1.78 0.84 0.38 0.16 0.76 0.3 1.14 0.46 0.56 0.24 1.14 0.46 1.72 0.68 0.4 0.16 0.8 0.3 1.2 0.44 0.58 0.18 1.14 0.38 1.7 0.56l1.26 0.36c0.58 0.16 1.16 0.32 1.74 0.46 0.42 0.12 0.84 0.22 1.28 0.32l1.76 0.36c0.44 0.08 0.86 0.16 1.28 0.24 0.62 0.1 1.26 0.18 1.88 0.26a37.164 37.164 0 0 0 3.32 0.34c0.34 0.04 0.68 0.06 1.02 0.08 1.06 0.06 2.12 0.1 3.18 0.1 30.84 0 55.94-25.1 55.94-55.96s-25.1-55.96-55.94-55.96c-1.06 0-2.1 0.02-3.14 0.08-0.34 0.02-0.68 0.06-1.02 0.1-0.68 0.04-1.38 0.1-2.08 0.18-0.4 0.04-0.8 0.1-1.2 0.16-0.64 0.08-1.26 0.18-1.88 0.28-0.42 0.06-0.84 0.16-1.26 0.24l-1.78 0.36c-0.42 0.1-0.84 0.2-1.26 0.32-0.6 0.14-1.18 0.3-1.76 0.46-0.4 0.12-0.82 0.26-1.24 0.38-0.58 0.18-1.16 0.38-1.72 0.58l-1.2 0.42c-0.6 0.22-1.18 0.46-1.76 0.7-0.36 0.16-0.74 0.3-1.1 0.46-0.64 0.28-1.26 0.58-1.88 0.88l-0.9 0.42c-0.88 0.46-1.74 0.92-2.6 1.4l-0.12 0.06c-0.9 0.52-1.76 1.06-2.64 1.62-0.26 0.18-0.5 0.36-0.76 0.52-0.6 0.4-1.18 0.82-1.78 1.24-0.3 0.22-0.6 0.46-0.92 0.7-0.5 0.4-1.02 0.78-1.52 1.2-0.32 0.26-0.64 0.54-0.96 0.8-0.46 0.4-0.92 0.82-1.38 1.22-0.32 0.3-0.62 0.6-0.94 0.9-0.44 0.42-0.86 0.84-1.3 1.28l-0.9 0.96c-0.18 0.18-0.34 0.34-0.52 0.54h-7.6v-112.68h122.66c5.52 0 10-4.48 10-10v-22.3c0-0.22-0.06-0.42-0.06-0.64-0.02-0.36-0.06-0.72-0.12-1.08-0.04-0.32-0.14-0.62-0.22-0.92a8.84 8.84 0 0 0-0.3-0.96c-0.1-0.3-0.24-0.58-0.4-0.86a7.1 7.1 0 0 0-1.02-1.64c-0.2-0.26-0.4-0.52-0.62-0.74-0.24-0.26-0.52-0.5-0.8-0.74-0.16-0.14-0.3-0.3-0.48-0.44-9.16-6.86-14.44-17.36-14.44-28.78 0-19.84 16.14-35.96 35.98-35.96 19.82 0 35.94 16.12 35.94 35.96 0 11.44-5.26 21.92-14.42 28.78-0.18 0.14-0.3 0.28-0.46 0.42-0.3 0.24-0.58 0.48-0.84 0.76-0.2 0.22-0.38 0.46-0.58 0.7-0.2 0.28-0.42 0.54-0.6 0.84-0.16 0.26-0.3 0.52-0.44 0.8-0.14 0.3-0.3 0.6-0.42 0.92-0.12 0.3-0.2 0.6-0.28 0.9-0.08 0.32-0.18 0.64-0.24 0.96-0.06 0.34-0.08 0.68-0.1 1.02-0.02 0.24-0.06 0.46-0.06 0.7v22.3c0 5.52 4.48 10 10 10h177.04V653.8z m0-237.58h-167.04v-7.64c11.62-10.52 18.44-25.66 18.44-41.46 0-30.86-25.1-55.96-55.94-55.96-30.86 0-55.98 25.1-55.98 55.96 0 15.78 6.84 30.92 18.46 41.46v7.64h-112.66v-122.66c0-5.52-4.48-10-10-10h-22.3c-0.24 0-0.44 0.06-0.66 0.06-0.36 0.04-0.72 0.06-1.06 0.12-0.32 0.06-0.64 0.14-0.94 0.22-0.32 0.08-0.62 0.18-0.92 0.3-0.32 0.1-0.6 0.26-0.9 0.4-0.28 0.14-0.56 0.28-0.84 0.46s-0.54 0.38-0.8 0.58c-0.24 0.2-0.5 0.38-0.72 0.6-0.28 0.26-0.52 0.52-0.74 0.8-0.14 0.16-0.3 0.3-0.44 0.48-6.86 9.18-17.36 14.44-28.8 14.44-19.82 0-35.94-16.14-35.94-35.96 0-19.84 16.12-35.96 35.94-35.96 11.44 0 21.94 5.26 28.8 14.44 0.14 0.18 0.32 0.32 0.46 0.5 0.22 0.26 0.44 0.52 0.7 0.76 0.24 0.22 0.5 0.44 0.78 0.64 0.24 0.18 0.48 0.38 0.74 0.54 0.3 0.18 0.6 0.34 0.9 0.48 0.28 0.14 0.54 0.28 0.84 0.38 0.32 0.14 0.64 0.22 0.98 0.32 0.28 0.08 0.58 0.16 0.88 0.2 0.36 0.08 0.74 0.1 1.12 0.12 0.2 0.02 0.4 0.06 0.62 0.06h22.3c5.52 0 10-4.48 10-10V134.82h294.1c33.42 0 60.62 27.2 60.62 60.62v220.78z" fill="#23130D" p-id="2762"></path><path d="M957.36 436.22V653.8c0 33.42-27.2 60.62-60.62 60.62H602.64v-90.52h7.6c0.16 0.2 0.34 0.38 0.52 0.56 0.3 0.34 0.62 0.68 0.94 1l1.26 1.26c0.32 0.3 0.64 0.62 0.98 0.92 0.44 0.42 0.88 0.8 1.34 1.2 0.32 0.28 0.66 0.58 1 0.84 0.48 0.4 0.96 0.78 1.46 1.16 0.32 0.26 0.64 0.5 0.96 0.74 0.56 0.42 1.14 0.82 1.72 1.22 0.28 0.18 0.54 0.36 0.8 0.54 0.86 0.56 1.72 1.1 2.6 1.6 0.16 0.1 0.32 0.18 0.48 0.26 0.74 0.42 1.46 0.82 2.22 1.2 0.32 0.16 0.66 0.3 0.98 0.46 0.6 0.28 1.18 0.58 1.78 0.84 0.38 0.16 0.76 0.3 1.14 0.46 0.56 0.24 1.14 0.46 1.72 0.68 0.4 0.16 0.8 0.3 1.2 0.44 0.58 0.18 1.14 0.38 1.7 0.56l1.26 0.36c0.58 0.16 1.16 0.32 1.74 0.46 0.42 0.12 0.84 0.22 1.28 0.32l1.76 0.36c0.44 0.08 0.86 0.16 1.28 0.24 0.62 0.1 1.26 0.18 1.88 0.26a37.164 37.164 0 0 0 3.32 0.34c0.34 0.04 0.68 0.06 1.02 0.08 1.06 0.06 2.12 0.1 3.18 0.1 30.84 0 55.94-25.1 55.94-55.96s-25.1-55.96-55.94-55.96c-1.06 0-2.1 0.02-3.14 0.08-0.34 0.02-0.68 0.06-1.02 0.1-0.68 0.04-1.38 0.1-2.08 0.18-0.4 0.04-0.8 0.1-1.2 0.16-0.64 0.08-1.26 0.18-1.88 0.28-0.42 0.06-0.84 0.16-1.26 0.24l-1.78 0.36c-0.42 0.1-0.84 0.2-1.26 0.32-0.6 0.14-1.18 0.3-1.76 0.46-0.4 0.12-0.82 0.26-1.24 0.38-0.58 0.18-1.16 0.38-1.72 0.58l-1.2 0.42c-0.6 0.22-1.18 0.46-1.76 0.7-0.36 0.16-0.74 0.3-1.1 0.46-0.64 0.28-1.26 0.58-1.88 0.88l-0.9 0.42c-0.88 0.46-1.74 0.92-2.6 1.4l-0.12 0.06c-0.9 0.52-1.76 1.06-2.64 1.62-0.26 0.18-0.5 0.36-0.76 0.52-0.6 0.4-1.18 0.82-1.78 1.24-0.3 0.22-0.6 0.46-0.92 0.7-0.5 0.4-1.02 0.78-1.52 1.2-0.32 0.26-0.64 0.54-0.96 0.8-0.46 0.4-0.92 0.82-1.38 1.22-0.32 0.3-0.62 0.6-0.94 0.9-0.44 0.42-0.86 0.84-1.3 1.28l-0.9 0.96c-0.18 0.18-0.34 0.34-0.52 0.54h-7.6v-112.68h122.66c5.52 0 10-4.48 10-10v-22.3c0-0.22-0.06-0.42-0.06-0.64-0.02-0.36-0.06-0.72-0.12-1.08-0.04-0.32-0.14-0.62-0.22-0.92a8.84 8.84 0 0 0-0.3-0.96c-0.1-0.3-0.24-0.58-0.4-0.86a7.1 7.1 0 0 0-1.02-1.64c-0.2-0.26-0.4-0.52-0.62-0.74-0.24-0.26-0.52-0.5-0.8-0.74-0.16-0.14-0.3-0.3-0.48-0.44-9.16-6.86-14.44-17.36-14.44-28.78 0-19.84 16.14-35.96 35.98-35.96 19.82 0 35.94 16.12 35.94 35.96 0 11.44-5.26 21.92-14.42 28.78-0.18 0.14-0.3 0.28-0.46 0.42-0.3 0.24-0.58 0.48-0.84 0.76-0.2 0.22-0.38 0.46-0.58 0.7-0.2 0.28-0.42 0.54-0.6 0.84-0.16 0.26-0.3 0.52-0.44 0.8-0.14 0.3-0.3 0.6-0.42 0.92-0.12 0.3-0.2 0.6-0.28 0.9-0.08 0.32-0.18 0.64-0.24 0.96-0.06 0.34-0.08 0.68-0.1 1.02-0.02 0.24-0.06 0.46-0.06 0.7v22.3c0 5.52 4.48 10 10 10h177.04z" fill="#EC7063" p-id="2763"></path><path d="M957.36 195.44v220.78h-167.04v-7.64c11.62-10.52 18.44-25.66 18.44-41.46 0-30.86-25.1-55.96-55.94-55.96-30.86 0-55.98 25.1-55.98 55.96 0 15.78 6.84 30.92 18.46 41.46v7.64h-112.66v-122.66c0-5.52-4.48-10-10-10h-22.3c-0.24 0-0.44 0.06-0.66 0.06-0.36 0.04-0.72 0.06-1.06 0.12-0.32 0.06-0.64 0.14-0.94 0.22-0.32 0.08-0.62 0.18-0.92 0.3-0.32 0.1-0.6 0.26-0.9 0.4-0.28 0.14-0.56 0.28-0.84 0.46s-0.54 0.38-0.8 0.58c-0.24 0.2-0.5 0.38-0.72 0.6-0.28 0.26-0.52 0.52-0.74 0.8-0.14 0.16-0.3 0.3-0.44 0.48-6.86 9.18-17.36 14.44-28.8 14.44-19.82 0-35.94-16.14-35.94-35.96 0-19.84 16.12-35.96 35.94-35.96 11.44 0 21.94 5.26 28.8 14.44 0.14 0.18 0.32 0.32 0.46 0.5 0.22 0.26 0.44 0.52 0.7 0.76 0.24 0.22 0.5 0.44 0.78 0.64 0.24 0.18 0.48 0.38 0.74 0.54 0.3 0.18 0.6 0.34 0.9 0.48 0.28 0.14 0.54 0.28 0.84 0.38 0.32 0.14 0.64 0.22 0.98 0.32 0.28 0.08 0.58 0.16 0.88 0.2 0.36 0.08 0.74 0.1 1.12 0.12 0.2 0.02 0.4 0.06 0.62 0.06h22.3c5.52 0 10-4.48 10-10V134.82h294.1c33.42 0 60.62 27.2 60.62 60.62z" fill="#3594BF" p-id="2764"></path><path d="M477.58 266.06c0 30.86 25.1 55.96 55.94 55.96 15.8 0 30.94-6.84 41.48-18.46h7.64v112.66h-122.66c-5.52 0-10 4.48-10 10v22.3c0 0.22 0.06 0.44 0.06 0.66 0.04 0.36 0.06 0.72 0.12 1.06 0.06 0.32 0.14 0.62 0.22 0.94 0.08 0.3 0.18 0.62 0.3 0.94 0.12 0.3 0.26 0.58 0.4 0.86 0.14 0.3 0.28 0.58 0.46 0.86s0.38 0.52 0.56 0.78c0.2 0.26 0.4 0.52 0.62 0.76 0.24 0.26 0.52 0.48 0.78 0.7 0.18 0.16 0.32 0.32 0.5 0.46 9.18 6.86 14.44 17.36 14.44 28.8 0 19.82-16.14 35.94-35.96 35.94-19.84 0-35.96-16.12-35.96-35.94 0-11.44 5.26-21.94 14.44-28.8 0.18-0.14 0.32-0.32 0.5-0.46 0.26-0.22 0.52-0.46 0.76-0.7s0.44-0.5 0.64-0.78c0.18-0.24 0.38-0.48 0.54-0.74 0.18-0.3 0.34-0.6 0.48-0.9 0.14-0.28 0.28-0.54 0.4-0.84 0.12-0.32 0.2-0.64 0.3-0.98 0.08-0.28 0.16-0.58 0.22-0.88 0.06-0.38 0.08-0.74 0.1-1.12 0.02-0.2 0.06-0.4 0.06-0.62v-22.3c0-5.52-4.48-10-10-10h-177.04V195.44c0-33.42 27.2-60.62 60.62-60.62h294.1v93.72h-7.64c-10.54-11.62-25.68-18.44-41.48-18.44-30.84 0-55.94 25.1-55.94 55.96z" fill="#F9C139" p-id="2765"></path><path d="M490.48 705.2c-1.04 0-2.1 0.02-3.14 0.08-0.34 0.02-0.68 0.06-1.02 0.1-0.7 0.04-1.38 0.1-2.08 0.18-0.4 0.04-0.8 0.1-1.22 0.16-0.62 0.08-1.24 0.18-1.84 0.28-0.44 0.06-0.86 0.16-1.3 0.24l-1.74 0.36c-0.44 0.1-0.88 0.22-1.3 0.32-0.58 0.14-1.14 0.3-1.7 0.46-0.44 0.12-0.86 0.26-1.3 0.38-0.56 0.18-1.12 0.36-1.66 0.56-0.42 0.14-0.84 0.3-1.26 0.46-0.56 0.2-1.12 0.42-1.66 0.66-0.4 0.16-0.8 0.32-1.2 0.5-0.58 0.24-1.16 0.52-1.74 0.8-0.34 0.16-0.7 0.32-1.06 0.5-0.74 0.38-1.46 0.78-2.2 1.18-0.18 0.12-0.38 0.22-0.58 0.32-0.84 0.5-1.68 1.02-2.5 1.54l-0.96 0.66c-0.52 0.36-1.06 0.72-1.58 1.1-0.36 0.26-0.7 0.52-1.04 0.8-0.48 0.36-0.94 0.72-1.4 1.08-0.36 0.3-0.7 0.6-1.04 0.9-0.44 0.38-0.88 0.76-1.3 1.14l-1.02 0.96c-0.42 0.4-0.82 0.8-1.22 1.2l-0.96 1.02c-0.16 0.18-0.34 0.34-0.5 0.52h-7.6v-122.68c0-5.52-4.48-10-10-10h-132.66c-5.52 0-10 4.48-10 10v22.3c0 0.24 0.06 0.44 0.06 0.66 0.04 0.36 0.06 0.72 0.12 1.06 0.06 0.32 0.14 0.62 0.22 0.94 0.1 0.32 0.18 0.62 0.3 0.92 0.12 0.32 0.26 0.6 0.4 0.88 0.14 0.3 0.28 0.58 0.46 0.86s0.38 0.54 0.58 0.8c0.18 0.24 0.38 0.5 0.6 0.72 0.26 0.28 0.52 0.5 0.8 0.74 0.16 0.14 0.3 0.3 0.48 0.44 9.18 6.86 14.44 17.36 14.44 28.8 0 19.82-16.14 35.94-35.96 35.94s-35.96-16.12-35.96-35.94c0-11.44 5.26-21.94 14.44-28.8 0.18-0.14 0.32-0.32 0.5-0.46 0.26-0.22 0.52-0.46 0.76-0.7 0.24-0.24 0.44-0.5 0.64-0.78 0.18-0.24 0.38-0.48 0.54-0.74 0.18-0.3 0.34-0.6 0.48-0.9 0.14-0.28 0.28-0.54 0.4-0.84 0.12-0.32 0.2-0.64 0.3-0.98 0.08-0.3 0.16-0.58 0.22-0.88 0.06-0.38 0.08-0.76 0.1-1.14 0.02-0.2 0.06-0.38 0.06-0.6v-22.3c0-5.52-4.48-10-10-10H56.64c-2.08 0-4 0.64-5.6 1.72-2.66 1.78-4.4 4.84-4.4 8.28v227.58c0 44.46 36.16 80.62 80.62 80.62h304.1a10 10 0 0 0 9.8-7.98c0.12-0.66 0.2-1.32 0.2-2.02v-100.52h7.6c0.18 0.18 0.34 0.36 0.52 0.54 0.3 0.32 0.6 0.64 0.92 0.96 0.42 0.44 0.84 0.86 1.28 1.26a14 14 0 0 0 0.96 0.92c0.44 0.4 0.9 0.8 1.36 1.2 0.32 0.28 0.64 0.56 0.98 0.82 0.48 0.4 1 0.8 1.5 1.18 0.3 0.24 0.62 0.48 0.94 0.72 0.58 0.42 1.16 0.82 1.76 1.22 0.26 0.18 0.5 0.36 0.78 0.54 0.86 0.56 1.74 1.1 2.62 1.6l0.12 0.06c0.84 0.5 1.72 0.96 2.6 1.4 0.3 0.16 0.6 0.3 0.9 0.44 0.62 0.3 1.24 0.6 1.88 0.88 0.36 0.16 0.74 0.3 1.1 0.46 0.58 0.24 1.18 0.48 1.76 0.7 0.4 0.14 0.8 0.28 1.18 0.42 0.58 0.2 1.16 0.4 1.74 0.58 0.42 0.12 0.84 0.24 1.24 0.36 0.58 0.18 1.18 0.32 1.76 0.48l1.26 0.3c0.6 0.14 1.18 0.26 1.78 0.38l1.26 0.24c0.62 0.1 1.26 0.18 1.88 0.28 0.4 0.04 0.8 0.1 1.2 0.16 0.7 0.08 1.4 0.12 2.1 0.18 0.34 0.02 0.66 0.06 1 0.08 1.04 0.06 2.08 0.1 3.14 0.1 30.84 0 55.94-25.1 55.94-55.96s-25.1-55.96-55.94-55.96z m0 91.92c-11.44 0-21.94-5.26-28.8-14.44l-3-4.02h-27.32c-4.84 0-8.86 3.44-9.8 8-0.14 0.64-0.2 1.32-0.2 2.02v100.5H127.26c-33.42 0-60.62-27.2-60.62-60.62V610.98h167.04v7.62c-11.76 10.6-18.44 25.44-18.44 41.5 0 30.84 25.1 55.94 55.96 55.94s55.96-25.1 55.96-55.94c0-16.06-6.68-30.9-18.46-41.5v-7.62h112.66v122.68c0 5.52 4.48 10 10 10h27.32l3-4.02c6.86-9.18 17.36-14.44 28.8-14.44 19.82 0 35.94 16.12 35.94 35.96 0 19.82-16.12 35.96-35.94 35.96z" fill="#23130D" p-id="2766"></path><path d="M526.42 761.16c0 19.82-16.12 35.96-35.94 35.96-11.44 0-21.94-5.26-28.8-14.44l-3-4.02h-27.32c-4.84 0-8.86 3.44-9.8 8-0.14 0.64-0.2 1.32-0.2 2.02v100.5H127.26c-33.42 0-60.62-27.2-60.62-60.62V610.98h167.04v7.62c-11.76 10.6-18.44 25.44-18.44 41.5 0 30.84 25.1 55.94 55.96 55.94s55.96-25.1 55.96-55.94c0-16.06-6.68-30.9-18.46-41.5v-7.62h112.66v122.68c0 5.52 4.48 10 10 10h27.32l3-4.02c6.86-9.18 17.36-14.44 28.8-14.44 19.82 0 35.94 16.12 35.94 35.96z" fill="#72AF5F" p-id="2767"></path><path d="M752.82 341.16c14.304 0 25.94 11.646 25.94 25.96 0 8.246-3.796 15.82-10.414 20.776l-0.072 0.054-0.072 0.056a12.82 12.82 0 0 0-0.93 0.8c-0.44 0.366-0.992 0.858-1.558 1.468l-0.036 0.04-0.036 0.04a17.922 17.922 0 0 0-0.766 0.906l-0.096 0.118-0.218 0.258-0.218 0.304-0.064 0.086a15.52 15.52 0 0 0-0.948 1.376 19.956 19.956 0 0 0-0.854 1.546l-0.064 0.13-0.052 0.11-0.058 0.12a17.148 17.148 0 0 0-0.626 1.416c-0.318 0.814-0.504 1.512-0.618 1.938l-0.026 0.1-0.012 0.05-0.036 0.136c-0.126 0.468-0.244 0.94-0.332 1.408l-0.01 0.054-0.01 0.054a17.06 17.06 0 0 0-0.22 1.928 13.532 13.532 0 0 0-0.092 1.528v22.3c0 11.028 8.972 20 20 20h167.04V653.8c0 27.912-22.708 50.62-50.62 50.62H612.64v-64.886l0.06 0.046c0.666 0.5 1.354 0.976 2.042 1.452l0.134 0.092 0.136 0.088c0.178 0.114 0.342 0.23 0.518 0.352l0.114 0.08 0.118 0.076c1.126 0.734 2.08 1.322 2.988 1.84 0.322 0.192 0.608 0.344 0.828 0.458 0.752 0.426 1.57 0.876 2.47 1.326 0.27 0.134 0.546 0.264 0.824 0.39l0.154 0.07 0.12 0.06 0.122 0.058 0.53 0.254c0.498 0.242 0.996 0.48 1.502 0.7l0.048 0.02 0.048 0.02c0.26 0.11 0.518 0.212 0.778 0.314l0.304 0.12c0.662 0.284 1.348 0.548 2.042 0.812 0.506 0.2 1.01 0.38 1.516 0.556l0.17 0.06 0.172 0.054c0.254 0.078 0.502 0.164 0.75 0.246 0.286 0.096 0.57 0.192 0.854 0.282l0.154 0.05 0.156 0.044 1.354 0.386c0.618 0.17 1.236 0.34 1.854 0.492 0.526 0.146 1.054 0.272 1.604 0.398l0.094 0.022 0.094 0.02 0.91 0.186 0.85 0.174 0.118 0.024 0.118 0.022 1.2 0.224 0.138 0.026 0.14 0.022c0.664 0.108 1.346 0.196 2.014 0.282l0.084 0.01a48.014 48.014 0 0 0 3.87 0.404c0.418 0.042 0.842 0.07 1.282 0.096 1.38 0.078 2.604 0.116 3.744 0.116 36.36 0 65.94-29.59 65.94-65.96 0-36.37-29.58-65.96-65.94-65.96-1.394 0-2.574 0.03-3.728 0.098-0.438 0.026-0.878 0.068-1.316 0.118a50.16 50.16 0 0 0-2.266 0.202 36.08 36.08 0 0 0-1.496 0.196c-0.69 0.088-1.362 0.194-2.04 0.304-0.444 0.066-0.888 0.154-1.332 0.244l-0.362 0.072-0.926 0.188-0.854 0.172-0.178 0.036-0.176 0.042c-0.482 0.114-0.962 0.232-1.444 0.364-0.652 0.156-1.286 0.33-1.92 0.504l-0.108 0.03-0.106 0.032-0.618 0.192a17.812 17.812 0 0 1-0.494 0.152l-0.11 0.032-0.11 0.034c-0.714 0.222-1.428 0.466-2.058 0.692l-1.2 0.42-0.07 0.024-0.07 0.026c-0.728 0.266-1.432 0.556-2.14 0.848l-0.148 0.062-0.086 0.038-0.25 0.102a24.94 24.94 0 0 0-0.8 0.336c-0.736 0.322-1.452 0.664-2.166 1.01l-0.528 0.246-0.308 0.144-0.204 0.096-0.2 0.104c-0.892 0.466-1.766 0.934-2.638 1.418l-0.19 0.096-0.26 0.15a85.6 85.6 0 0 0-3.008 1.842l-0.162 0.104-0.158 0.11-0.316 0.222-0.09 0.064-0.058 0.036-0.152 0.102c-0.5 0.334-0.99 0.678-1.484 1.028l-0.484 0.342-0.09 0.062-0.088 0.064-0.128 0.094V446.22h112.66c11.028 0 20-8.972 20-20.04v-22.26c0-0.562-0.042-1.038-0.09-1.43-0.04-0.592-0.108-1.188-0.2-1.776a15.046 15.046 0 0 0-0.44-1.988 19.104 19.104 0 0 0-0.552-1.774 14.38 14.38 0 0 0-0.916-2.06 16.174 16.174 0 0 0-0.948-1.698 20.4 20.4 0 0 0-1.05-1.476 17.22 17.22 0 0 0-2.648-2.81 13.18 13.18 0 0 0-1.034-0.902l-0.072-0.056-0.074-0.056c-6.632-4.966-10.434-12.538-10.434-20.776-0.004-14.312 11.65-25.958 25.976-25.958m0-10c-19.84 0-35.98 16.12-35.98 35.96 0 11.42 5.28 21.92 14.44 28.78 0.18 0.14 0.32 0.3 0.48 0.44 0.28 0.24 0.56 0.48 0.8 0.74 0.22 0.22 0.42 0.48 0.62 0.74s0.38 0.5 0.56 0.78c0.18 0.28 0.32 0.56 0.46 0.86 0.16 0.28 0.3 0.56 0.4 0.86 0.12 0.32 0.22 0.64 0.3 0.96 0.08 0.3 0.18 0.6 0.22 0.92 0.06 0.36 0.1 0.72 0.12 1.08 0 0.22 0.06 0.42 0.06 0.64v22.3c0 5.52-4.48 10-10 10h-122.66v112.68h7.6c0.18-0.2 0.34-0.36 0.52-0.54l0.9-0.96c0.44-0.44 0.86-0.86 1.3-1.28 0.32-0.3 0.62-0.6 0.94-0.9 0.46-0.4 0.92-0.82 1.38-1.22 0.32-0.26 0.64-0.54 0.96-0.8 0.5-0.42 1.02-0.8 1.52-1.2 0.32-0.24 0.62-0.48 0.92-0.7 0.6-0.42 1.18-0.84 1.78-1.24 0.26-0.16 0.5-0.34 0.76-0.52 0.88-0.56 1.74-1.1 2.64-1.62l0.12-0.06c0.86-0.48 1.72-0.94 2.6-1.4l0.9-0.42c0.62-0.3 1.24-0.6 1.88-0.88 0.36-0.16 0.74-0.3 1.1-0.46 0.58-0.24 1.16-0.48 1.76-0.7l1.2-0.42c0.56-0.2 1.14-0.4 1.72-0.58 0.42-0.12 0.84-0.26 1.24-0.38 0.58-0.16 1.16-0.32 1.76-0.46 0.42-0.12 0.84-0.22 1.26-0.32l1.78-0.36c0.42-0.08 0.84-0.18 1.26-0.24 0.62-0.1 1.24-0.2 1.88-0.28a38.112 38.112 0 0 1 3.28-0.34c0.34-0.04 0.68-0.08 1.02-0.1 1.04-0.06 2.08-0.08 3.14-0.08 30.84 0 55.94 25.1 55.94 55.96s-25.1 55.96-55.94 55.96c-1.06 0-2.12-0.04-3.18-0.1-0.34-0.02-0.68-0.04-1.02-0.08-0.7-0.04-1.4-0.1-2.1-0.18-0.42-0.04-0.82-0.1-1.22-0.16-0.62-0.08-1.26-0.16-1.88-0.26-0.42-0.08-0.84-0.16-1.28-0.24l-1.76-0.36c-0.44-0.1-0.86-0.2-1.28-0.32-0.58-0.14-1.16-0.3-1.74-0.46l-1.26-0.36c-0.56-0.18-1.12-0.38-1.7-0.56-0.4-0.14-0.8-0.28-1.2-0.44-0.58-0.22-1.16-0.44-1.72-0.68-0.38-0.16-0.76-0.3-1.14-0.46-0.6-0.26-1.18-0.56-1.78-0.84-0.32-0.16-0.66-0.3-0.98-0.46-0.76-0.38-1.48-0.78-2.22-1.2-0.16-0.08-0.32-0.16-0.48-0.26-0.88-0.5-1.74-1.04-2.6-1.6-0.26-0.18-0.52-0.36-0.8-0.54-0.58-0.4-1.16-0.8-1.72-1.22-0.32-0.24-0.64-0.48-0.96-0.74-0.5-0.38-0.98-0.76-1.46-1.16-0.34-0.26-0.68-0.56-1-0.84-0.46-0.4-0.9-0.78-1.34-1.2-0.34-0.3-0.66-0.62-0.98-0.92l-1.26-1.26c-0.32-0.32-0.64-0.66-0.94-1-0.18-0.18-0.36-0.36-0.52-0.56h-7.6v90.52h294.1c33.42 0 60.62-27.2 60.62-60.62V436.22h-177.04c-5.52 0-10-4.48-10-10v-22.3c0-0.24 0.04-0.46 0.06-0.7 0.02-0.34 0.04-0.68 0.1-1.02 0.06-0.32 0.16-0.64 0.24-0.96 0.08-0.3 0.16-0.6 0.28-0.9 0.12-0.32 0.28-0.62 0.42-0.92 0.14-0.28 0.28-0.54 0.44-0.8 0.18-0.3 0.4-0.56 0.6-0.84 0.2-0.24 0.38-0.48 0.58-0.7 0.26-0.28 0.54-0.52 0.84-0.76 0.16-0.14 0.28-0.28 0.46-0.42 9.16-6.86 14.42-17.34 14.42-28.78 0-19.84-16.12-35.96-35.94-35.96z" fill="#0A0A09" opacity=".2" p-id="2768"></path><path d="M896.74 144.82c27.912 0 50.62 22.708 50.62 50.62v210.78h-141.492a65.984 65.984 0 0 0 12.892-39.1c0-36.37-29.58-65.96-65.94-65.96-36.382 0-65.98 29.59-65.98 65.96 0 14.122 4.606 27.83 12.918 39.1H612.64v-112.66c0-11.028-8.972-20-20.04-20h-22.26c-0.448 0-0.84 0.026-1.18 0.06h-0.038l-0.55 0.06-0.172 0.016a19.05 19.05 0 0 0-1.518 0.194l-0.056 0.01-0.056 0.01c-0.544 0.102-1.088 0.232-1.6 0.368a16.444 16.444 0 0 0-1.838 0.584c-0.758 0.268-1.336 0.554-1.704 0.736l-0.124 0.058-0.122 0.06c-0.39 0.194-1.042 0.52-1.776 0.992-0.636 0.408-1.15 0.804-1.488 1.066l-0.166 0.126-0.15 0.126a14.64 14.64 0 0 0-1.22 1.05 16.872 16.872 0 0 0-1.33 1.406 12.648 12.648 0 0 0-0.828 0.958l-0.06 0.078-0.058 0.078c-4.952 6.626-12.528 10.426-20.79 10.426-14.304 0-25.94-11.646-25.94-25.96s11.636-25.96 25.94-25.96c8.26 0 15.838 3.8 20.79 10.426l0.058 0.078 0.06 0.076c0.332 0.426 0.646 0.764 0.866 0.992a17.056 17.056 0 0 0 3.002 2.794l0.044 0.034c0.29 0.224 0.776 0.6 1.42 0.996l0.048 0.03 0.048 0.028c0.542 0.326 1.098 0.624 1.656 0.892 0.328 0.166 0.892 0.45 1.628 0.726 0.692 0.276 1.27 0.442 1.638 0.548l0.2 0.058c0.49 0.14 1.13 0.31 1.886 0.434 0.776 0.146 1.452 0.204 1.96 0.236 0.342 0.042 0.872 0.094 1.52 0.094h22.3c11.028 0 20-8.972 20-20.02V144.82h284.1m0-10H602.64v103.72c0 5.52-4.48 10-10 10h-22.3c-0.22 0-0.42-0.04-0.62-0.06-0.38-0.02-0.76-0.04-1.12-0.12-0.3-0.04-0.6-0.12-0.88-0.2-0.34-0.1-0.66-0.18-0.98-0.32-0.3-0.1-0.56-0.24-0.84-0.38-0.3-0.14-0.6-0.3-0.9-0.48-0.26-0.16-0.5-0.36-0.74-0.54-0.28-0.2-0.54-0.42-0.78-0.64-0.26-0.24-0.48-0.5-0.7-0.76-0.14-0.18-0.32-0.32-0.46-0.5-6.86-9.18-17.36-14.44-28.8-14.44-19.82 0-35.94 16.12-35.94 35.96 0 19.82 16.12 35.96 35.94 35.96 11.44 0 21.94-5.26 28.8-14.44 0.14-0.18 0.3-0.32 0.44-0.48 0.22-0.28 0.46-0.54 0.74-0.8 0.22-0.22 0.48-0.4 0.72-0.6 0.26-0.2 0.52-0.4 0.8-0.58 0.28-0.18 0.56-0.32 0.84-0.46 0.3-0.14 0.58-0.3 0.9-0.4 0.3-0.12 0.6-0.22 0.92-0.3 0.3-0.08 0.62-0.16 0.94-0.22 0.34-0.06 0.7-0.08 1.06-0.12 0.22 0 0.42-0.06 0.66-0.06h22.3c5.52 0 10 4.48 10 10v122.66h112.66v-7.64c-11.62-10.54-18.46-25.68-18.46-41.46 0-30.86 25.12-55.96 55.98-55.96 30.84 0 55.94 25.1 55.94 55.96 0 15.8-6.82 30.94-18.44 41.46v7.64h167.04V195.44c0-33.42-27.2-60.62-60.62-60.62z" fill="#0A0A09" opacity=".2" p-id="2769"></path><path d="M572.64 144.82v68.182c-11.268-8.302-24.982-12.902-39.12-12.902-36.36 0-65.94 29.59-65.94 65.96 0 36.37 29.58 65.96 65.94 65.96 14.132 0 27.846-4.606 39.12-12.918v87.118h-112.66c-11.028 0-20 8.972-20 20v22.3c0 0.456 0.028 0.86 0.06 1.172v0.042l0.06 0.548 0.016 0.172c0.048 0.52 0.108 1.032 0.196 1.526l0.008 0.05 0.01 0.05c0.088 0.474 0.196 0.924 0.314 1.388l0.034 0.136 0.018 0.076 0.02 0.076c0.17 0.636 0.372 1.268 0.6 1.876l0.038 0.102 0.04 0.1c0.248 0.622 0.502 1.14 0.686 1.508 0.244 0.514 0.578 1.174 1.048 1.906 0.238 0.37 0.484 0.712 0.734 1.046l0.016 0.018 0.146 0.21 0.154 0.2c0.264 0.342 0.662 0.86 1.196 1.442 0.576 0.624 1.11 1.084 1.468 1.382 0.218 0.21 0.568 0.536 1.024 0.89l0.076 0.058 0.076 0.058c6.626 4.952 10.426 12.528 10.426 20.79 0 14.304-11.646 25.94-25.96 25.94s-25.96-11.636-25.96-25.94c0-8.26 3.8-15.838 10.426-20.79l0.076-0.058 0.076-0.058c0.434-0.338 0.78-0.658 1.008-0.88 0.406-0.35 0.804-0.722 1.186-1.104 0.714-0.714 1.244-1.402 1.604-1.896l0.026-0.034c0.224-0.29 0.6-0.776 0.994-1.418l0.03-0.048 0.03-0.05c0.324-0.54 0.622-1.094 0.888-1.65l0.018-0.036a17.6 17.6 0 0 0 0.684-1.486l0.04-0.1 0.038-0.102c0.186-0.496 0.338-0.99 0.484-1.504l0.068-0.238c0.11-0.386 0.274-0.98 0.41-1.666l0.04-0.202 0.032-0.204a18.5 18.5 0 0 0 0.188-1.784c0.042-0.34 0.094-0.87 0.094-1.514v-22.3c0-11.028-8.972-20-20-20h-167.04V195.44c0-27.912 22.708-50.62 50.62-50.62H572.64m10-10H288.54c-33.42 0-60.62 27.2-60.62 60.62v220.78h177.04c5.52 0 10 4.48 10 10v22.3c0 0.22-0.04 0.42-0.06 0.62-0.02 0.38-0.04 0.74-0.1 1.12-0.06 0.3-0.14 0.6-0.22 0.88-0.1 0.34-0.18 0.66-0.3 0.98-0.12 0.3-0.26 0.56-0.4 0.84-0.14 0.3-0.3 0.6-0.48 0.9-0.16 0.26-0.36 0.5-0.54 0.74-0.2 0.28-0.4 0.54-0.64 0.78s-0.5 0.48-0.76 0.7c-0.18 0.14-0.32 0.32-0.5 0.46-9.18 6.86-14.44 17.36-14.44 28.8 0 19.82 16.12 35.94 35.96 35.94 19.82 0 35.96-16.12 35.96-35.94 0-11.44-5.26-21.94-14.44-28.8-0.18-0.14-0.32-0.3-0.5-0.46-0.26-0.22-0.54-0.44-0.78-0.7-0.22-0.24-0.42-0.5-0.62-0.76-0.18-0.26-0.38-0.5-0.56-0.78a7.1 7.1 0 0 1-0.46-0.86c-0.14-0.28-0.28-0.56-0.4-0.86-0.12-0.32-0.22-0.64-0.3-0.94-0.08-0.32-0.16-0.62-0.22-0.94-0.06-0.34-0.08-0.7-0.12-1.06 0-0.22-0.06-0.44-0.06-0.66v-22.3c0-5.52 4.48-10 10-10h122.66v-112.66h-7.64c-10.54 11.62-25.68 18.46-41.48 18.46-30.84 0-55.94-25.1-55.94-55.96s25.1-55.96 55.94-55.96c15.8 0 30.94 6.82 41.48 18.44h7.64V134.82zM411.36 620.98v112.68c0 11.028 8.972 20 20 20h32.336l3-4.02 2.996-4.014c4.952-6.626 12.528-10.426 20.79-10.426 14.304 0 25.94 11.646 25.94 25.96s-11.636 25.96-25.94 25.96c-8.26 0-15.838-3.8-20.786-10.42l-3-4.02-3-4.02H431.36c-9.426 0-17.652 6.694-19.582 15.924a19.494 19.494 0 0 0-0.418 4.096v90.5H127.26c-27.912 0-50.62-22.708-50.62-50.62V620.98h141.406c-8.328 11.208-12.806 24.718-12.806 39.12 0 36.36 29.59 65.94 65.96 65.94 36.37 0 65.96-29.58 65.96-65.94 0-14.406-4.482-27.916-12.816-39.12h87.016m10-10h-112.66v7.62c11.78 10.6 18.46 25.44 18.46 41.5 0 30.84-25.1 55.94-55.96 55.94s-55.96-25.1-55.96-55.94c0-16.06 6.68-30.9 18.44-41.5v-7.62H66.64v217.58c0 33.42 27.2 60.62 60.62 60.62h294.1v-100.5c0-0.7 0.06-1.38 0.2-2.02 0.94-4.56 4.96-8 9.8-8h27.32l3 4.02c6.86 9.18 17.36 14.44 28.8 14.44 19.82 0 35.94-16.14 35.94-35.96 0-19.84-16.12-35.96-35.94-35.96-11.44 0-21.94 5.26-28.8 14.44l-3 4.02h-27.32c-5.52 0-10-4.48-10-10v-122.68z" fill="#0A0A09" opacity=".2" p-id="2770"></path></svg>